<svg id="Logo-Back" xmlns="http://www.w3.org/2000/svg" xmlns:xlink="http://www.w3.org/1999/xlink" width="103.635" height="55.416" viewBox="0 0 103.635 55.416">
  <defs>
    <linearGradient id="linear-gradient" x1="0.183" y1="-0.054" x2="0.838" y2="1.274" gradientUnits="objectBoundingBox">
      <stop offset="0" stop-color="#fff"/>
      <stop offset="0.568" stop-color="#00ace0"/>
      <stop offset="1" stop-color="#0070e0"/>
    </linearGradient>
  </defs>
  <path id="Path_1" data-name="Path 1" d="M2.5,55.473q6.143-7.04,12.439-13.946l6.3-6.907c2.105-2.291,4.2-4.6,6.322-6.867C31.8,23.19,36.038,18.614,40.308,14.1l6.409-6.781L53.165.557A1.607,1.607,0,0,1,55.443.5l.04.04h0c3.48,3.606,6.973,7.172,10.44,10.765L76.257,22.141l-2.769,1.122.073-8.142v-.033A1.508,1.508,0,0,1,75.075,13.6h0l11.29.133h.04a1.361,1.361,0,0,1,1.328,1.375h0l-.179,9.763c-.046,3.254-.126,6.508-.213,9.763l-.272-.664q4.828,5.313,9.6,10.686l4.755,5.386c1.587,1.793,3.141,3.619,4.715,5.426-1.727-1.66-3.473-3.321-5.18-4.981l-5.14-5.021q-5.12-5.041-10.194-10.121a.923.923,0,0,1-.272-.664v-.053c-.08-3.254-.159-6.508-.213-9.763L84.963,15.1l1.388,1.388-11.29.126L76.576,15.1l.1,8.162a1.594,1.594,0,0,1-2.73,1.122h0L63.519,13.62C60.039,10.04,56.625,6.408,53.165,2.8H55.5L48.988,9.5l-6.555,6.641c-4.357,4.45-8.766,8.846-13.163,13.282-2.192,2.212-4.416,4.39-6.641,6.575l-6.654,6.528C11.519,46.872,7.043,51.2,2.5,55.473Z" transform="translate(-2.5 -0.056)" fill="url(#linear-gradient)"/>
  <path id="Path_2" data-name="Path 2" d="M17.31,59.449C20.7,55.8,24.157,52.144,27.577,48.5L37.944,37.633c3.44-3.633,6.953-7.2,10.427-10.8l10.46-10.772a.664.664,0,0,1,.936,0h0l10.36,10.772c3.447,3.6,6.927,7.166,10.34,10.8L90.748,48.5c3.387,3.653,6.814,7.305,10.174,10.958-3.58-3.473-7.093-7.006-10.626-10.506L79.757,38.324c-3.546-3.5-6.993-7.093-10.48-10.646L58.831,16.985h.95L49.234,27.678c-3.52,3.553-7.006,7.146-10.566,10.666L28.042,48.969C24.463,52.443,20.916,55.976,17.31,59.449Z" transform="translate(-7.474 -5.368)" fill="url(#linear-gradient)"/>
  <path id="Path_3" data-name="Path 3" d="M75.252,62.222H65.29V52.26h9.962ZM85.878,52.26H75.916v9.962h9.962Zm0,10.626H75.916v9.962h9.962Zm-10.626,0H65.29v9.962h9.962Z" transform="translate(-23.59 -17.591)" fill="url(#linear-gradient)"/>
</svg>
