<svg xmlns="http://www.w3.org/2000/svg" xmlns:xlink="http://www.w3.org/1999/xlink" width="482.815" height="70.086" viewBox="0 0 482.815 70.086">
  <defs>
    <linearGradient id="linear-gradient" x1="0.183" y1="-0.054" x2="0.838" y2="1.274" gradientUnits="objectBoundingBox">
      <stop offset="0" stop-color="#fff"/>
      <stop offset="0.568" stop-color="#00ace0"/>
      <stop offset="1" stop-color="#0070e0"/>
    </linearGradient>
  </defs>
  <g id="Logo_Header" data-name="Logo Header" transform="translate(0 -0.414)">
    <g id="Logo-Back" transform="translate(0 0.414)">
      <path id="Path_1" data-name="Path 1" d="M2.5,55.473q6.143-7.04,12.439-13.946l6.3-6.907c2.105-2.291,4.2-4.6,6.322-6.867C31.8,23.19,36.038,18.614,40.308,14.1l6.409-6.781L53.165.557A1.607,1.607,0,0,1,55.443.5l.04.04h0c3.48,3.606,6.973,7.172,10.44,10.765L76.257,22.141l-2.769,1.122.073-8.142v-.033A1.508,1.508,0,0,1,75.075,13.6h0l11.29.133h.04a1.361,1.361,0,0,1,1.328,1.375h0l-.179,9.763c-.046,3.254-.126,6.508-.213,9.763l-.272-.664q4.828,5.313,9.6,10.686l4.755,5.386c1.587,1.793,3.141,3.619,4.715,5.426-1.727-1.66-3.473-3.321-5.18-4.981l-5.14-5.021q-5.12-5.041-10.194-10.121a.923.923,0,0,1-.272-.664v-.053c-.08-3.254-.159-6.508-.213-9.763L84.963,15.1l1.388,1.388-11.29.126L76.576,15.1l.1,8.162a1.594,1.594,0,0,1-2.73,1.122h0L63.519,13.62C60.039,10.04,56.625,6.408,53.165,2.8H55.5L48.988,9.5l-6.555,6.641c-4.357,4.45-8.766,8.846-13.163,13.282-2.192,2.212-4.416,4.39-6.641,6.575l-6.654,6.528C11.519,46.872,7.043,51.2,2.5,55.473Z" transform="translate(-2.5 -0.056)" fill="url(#linear-gradient)"/>
      <path id="Path_2" data-name="Path 2" d="M17.31,59.449C20.7,55.8,24.157,52.144,27.577,48.5L37.944,37.633c3.44-3.633,6.953-7.2,10.427-10.8l10.46-10.772a.664.664,0,0,1,.936,0h0l10.36,10.772c3.447,3.6,6.927,7.166,10.34,10.8L90.748,48.5c3.387,3.653,6.814,7.305,10.174,10.958-3.58-3.473-7.093-7.006-10.626-10.506L79.757,38.324c-3.546-3.5-6.993-7.093-10.48-10.646L58.831,16.985h.95L49.234,27.678c-3.52,3.553-7.006,7.146-10.566,10.666L28.042,48.969C24.463,52.443,20.916,55.976,17.31,59.449Z" transform="translate(-7.474 -5.368)" fill="url(#linear-gradient)"/>
      <path id="Path_3" data-name="Path 3" d="M75.252,62.222H65.29V52.26h9.962ZM85.878,52.26H75.916v9.962h9.962Zm0,10.626H75.916v9.962h9.962Zm-10.626,0H65.29v9.962h9.962Z" transform="translate(-23.59 -17.591)" fill="url(#linear-gradient)"/>
    </g>
    <g id="Text-Front" transform="translate(112.163)">
      <path id="Title" d="M-181.881-27.342l-1.6,27.006c-.042.294.042.336.294.336h4.2c.252,0,.336-.042.336-.294.42-8.82.756-19.488.8-23.73h.084c1.176,5.124,4.536,17.346,6.342,23.73.042.252.126.294.42.294h4.2a.334.334,0,0,0,.378-.336c1.68-5.586,6.006-19.614,6.972-23.646h.042c-.042,2.646.042,14.742.252,23.688,0,.252.126.294.336.294h4.662c.21,0,.336-.084.294-.336L-155-27.342c-.042-.21-.126-.252-.336-.252h-6.552c-.252,0-.294.126-.378.294-1.3,4.326-5.46,17.052-6.342,20.622h-.042c-.84-3.906-4.494-16.38-5.754-20.622a.377.377,0,0,0-.42-.294h-6.72C-181.755-27.594-181.839-27.594-181.881-27.342ZM-143.2-11.13a2.026,2.026,0,0,1,.294,1.218V-.378c0,.252.084.378.42.378h4.284c.294,0,.378-.084.378-.378V-9.744a2.187,2.187,0,0,1,.336-1.26l9.114-16.254c.084-.21.042-.336-.168-.336h-4.914c-.21,0-.294.042-.336.252-4.242,8.442-5.586,11.214-6.258,12.684-.588-1.428-2.016-4.074-6.468-12.726a.355.355,0,0,0-.378-.21h-5.082c-.168,0-.378.126-.21.378ZM-116.277-.294c0,.21.126.294.336.294h4.41c.252,0,.336-.126.336-.336v-8.61h2.646c6.342,0,11.508-2.9,11.508-9.576,0-4.62-3.024-9.156-11.172-9.156-3.066,0-6.174.084-7.77.126-.21,0-.294.126-.294.336Zm5.082-22.89c.462-.042,1.638-.084,3.108-.084,3.864,0,6.048,1.806,6.048,4.872,0,3.822-2.982,5-6.51,5-1.386,0-1.932,0-2.646-.042ZM-74.739-4.242c.042-.21-.042-.336-.294-.336H-87.759V-11.8h10.92c.168,0,.294-.042.294-.252v-3.99c0-.252-.084-.294-.294-.294h-10.92v-6.678h12.012c.252,0,.336-.168.294-.378l-.462-3.906c-.042-.252-.126-.294-.378-.294H-92.5c-.252,0-.336.126-.336.336V-.336c0,.21.084.336.378.336h16.716c.252,0,.336-.042.378-.336ZM-66.087,0c.21,0,.336-.084.336-.336V-10.584h3.612c.462,0,.672.21.966.714,1.848,2.94,4.788,7.77,6.006,9.66a.7.7,0,0,0,.588.21h5.25c.252,0,.21-.21.084-.462-1.218-2.1-6.258-9.618-7.644-11.55A7.807,7.807,0,0,0-51.471-19.4c0-5.376-3.948-8.274-10.668-8.274-3.234,0-5,.042-8.316.126-.252,0-.294.168-.294.378V-.336c0,.252.084.336.336.336Zm.336-14.91v-8.274c.672-.042,2.016-.084,3.444-.084,3.57,0,5.8,1.386,5.8,4.158,0,2.688-2.184,4.2-5.586,4.2Zm24.738,3.78H-30.3c.21,0,.336-.084.336-.294v-3.948c0-.252-.126-.294-.336-.294h-10.71v-7.35h11.928c.252,0,.378-.084.336-.336l-.42-3.906c-.042-.252-.126-.336-.378-.336H-45.759c-.252,0-.336.084-.336.294V-.336c0,.21.084.336.294.336h4.452c.252,0,.336-.084.336-.336Zm34.23,6.888c.042-.21-.042-.336-.294-.336H-19.8V-11.8h10.92c.168,0,.294-.042.294-.252v-3.99c0-.252-.084-.294-.294-.294H-19.8v-6.678H-7.791c.252,0,.336-.168.294-.378L-7.959-27.3c-.042-.252-.126-.294-.378-.294H-24.549c-.252,0-.336.126-.336.336V-.336c0,.21.084.336.378.336H-7.791c.252,0,.336-.042.378-.336ZM16.275-4.62c0-.252-.126-.294-.294-.21a14.925,14.925,0,0,1-5.166.714c-4.41,0-9.786-2.478-9.786-9.744,0-5.88,3.78-9.66,9.7-9.66a13.443,13.443,0,0,1,5.46.924c.168.084.336.084.336-.252v-3.99a.445.445,0,0,0-.252-.462,14.377,14.377,0,0,0-5.46-.714c-9.156,0-15.036,5.838-15.036,14.28C-4.221-4.158,2.415.42,10.185.42a18.111,18.111,0,0,0,5.8-.756.533.533,0,0,0,.294-.546ZM27.867-.378c0,.294.084.42.378.378h4.326c.21,0,.336-.126.336-.378V-23.016h8.484c.21,0,.336-.126.294-.378l-.378-3.822c-.042-.294-.168-.378-.42-.378H20.013c-.252,0-.336.084-.378.336l-.546,3.906c-.042.21.042.336.252.336h8.526ZM60.5.42c6.342,0,10.206-3.192,10.206-8.106,0-3.318-1.554-5.964-7.014-8.232l-1.6-.672c-3.318-1.386-4.284-2.436-4.284-3.948,0-1.47,1.134-2.982,4.746-2.982A13.12,13.12,0,0,1,68.9-22.134c.252.168.378,0,.378-.168v-4.074c0-.294-.042-.42-.252-.546A15.4,15.4,0,0,0,62.6-28.014c-6.342,0-9.744,3.444-9.744,7.938,0,3.15,1.344,5.754,6.51,7.938l2.016.84c3.192,1.344,4.2,2.52,4.2,4.074,0,1.806-1.47,3.15-4.914,3.15a14.133,14.133,0,0,1-7.476-2.184c-.168-.084-.336,0-.336.168v4.368a.624.624,0,0,0,.294.63A15.985,15.985,0,0,0,60.5.42ZM75.285-.294c0,.21.126.294.336.294h4.41c.252,0,.336-.126.336-.336v-8.61h2.646c6.342,0,11.508-2.9,11.508-9.576,0-4.62-3.024-9.156-11.172-9.156-3.066,0-6.174.084-7.77.126-.21,0-.294.126-.294.336Zm5.082-22.89c.462-.042,1.638-.084,3.108-.084,3.864,0,6.048,1.806,6.048,4.872,0,3.822-2.982,5-6.51,5-1.386,0-1.932,0-2.646-.042ZM111.321-7.266l2.436,7.014a.422.422,0,0,0,.42.252h4.7c.252,0,.294-.126.252-.378l-9.7-26.964c-.042-.21-.084-.252-.294-.252H103.3c-.168,0-.252.126-.252.294a6.421,6.421,0,0,1-.378,2.268L94.017-.42c-.042.294.042.42.294.42h4.2a.416.416,0,0,0,.462-.336l2.31-6.93Zm-8.694-4.578c1.26-3.822,2.94-8.736,3.612-11.55h.042c.84,2.94,2.814,8.778,3.7,11.55Zm38.3,7.224c0-.252-.126-.294-.294-.21a14.925,14.925,0,0,1-5.166.714c-4.41,0-9.786-2.478-9.786-9.744,0-5.88,3.78-9.66,9.7-9.66a13.443,13.443,0,0,1,5.46.924c.168.084.336.084.336-.252v-3.99a.445.445,0,0,0-.252-.462,14.377,14.377,0,0,0-5.46-.714c-9.156,0-15.036,5.838-15.036,14.28,0,9.576,6.636,14.154,14.406,14.154a18.111,18.111,0,0,0,5.8-.756.533.533,0,0,0,.294-.546Zm22.6.378c.042-.21-.042-.336-.294-.336H150.507V-11.8h10.92c.168,0,.294-.042.294-.252v-3.99c0-.252-.084-.294-.294-.294h-10.92v-6.678h12.012c.252,0,.336-.168.294-.378l-.462-3.906c-.042-.252-.126-.294-.378-.294H145.761c-.252,0-.336.126-.336.336V-.336c0,.21.084.336.378.336h16.716c.252,0,.336-.042.378-.336ZM174.447.42c6.342,0,10.206-3.192,10.206-8.106,0-3.318-1.554-5.964-7.014-8.232l-1.6-.672c-3.318-1.386-4.284-2.436-4.284-3.948,0-1.47,1.134-2.982,4.746-2.982a13.12,13.12,0,0,1,6.342,1.386c.252.168.378,0,.378-.168v-4.074c0-.294-.042-.42-.252-.546a15.4,15.4,0,0,0-6.426-1.092c-6.342,0-9.744,3.444-9.744,7.938,0,3.15,1.344,5.754,6.51,7.938l2.016.84c3.192,1.344,4.2,2.52,4.2,4.074,0,1.806-1.47,3.15-4.914,3.15a14.133,14.133,0,0,1-7.476-2.184c-.168-.084-.336,0-.336.168v4.368a.624.624,0,0,0,.294.63A15.985,15.985,0,0,0,174.447.42Z" transform="translate(186 43)" fill="#05aaf0"/>
      <path id="subtitle" d="M-88.942,0c.056,0,.07-.014.084-.07l2-6.566c.014-.042,0-.07-.028-.07h-.574a.071.071,0,0,0-.07.056C-88.9-2.086-89.11-1.106-89.222-.6h-.028c-.126-.532-.336-1.358-1.722-6.02-.014-.056-.028-.084-.07-.084h-.686c-.056,0-.07.028-.084.084C-93.254-2.1-93.506-1.05-93.618-.588h-.028c-.1-.434-.364-1.68-1.61-6.062a.071.071,0,0,0-.07-.056H-95.9c-.056,0-.07.042-.056.084l1.834,6.538c.014.07.028.084.126.084h.658c.056,0,.1-.014.112-.084.938-3.08,1.582-5.124,1.792-5.978h.014c.154.658.448,1.722,1.694,5.978a.093.093,0,0,0,.1.084Zm7.91-3.458c.546,0,1.232-.014,1.442-.042a.094.094,0,0,0,.1-.084,2.606,2.606,0,0,0,.042-.588,2.539,2.539,0,0,0-2.59-2.66c-1.778,0-2.912,1.554-2.912,3.528,0,1.694.854,3.444,3.136,3.444a3.771,3.771,0,0,0,1.862-.42c.042-.014.056-.042.056-.1V-.84c0-.056-.028-.07-.07-.042a3.64,3.64,0,0,1-1.75.392c-1.736,0-2.632-1.274-2.562-2.968ZM-84.252-4a2.286,2.286,0,0,1,2.2-2.24,1.94,1.94,0,0,1,1.946,2.03.8.8,0,0,1-.014.182A6.543,6.543,0,0,1-81.158-4Zm14.658-1.834c.042.028.084,0,.084-.056v-.518a.114.114,0,0,0-.056-.112,3.038,3.038,0,0,0-1.526-.308c-1.316,0-2.142.756-2.142,1.722s.63,1.484,1.9,1.988c1.05.434,1.428.8,1.428,1.47s-.546,1.19-1.582,1.19a2.97,2.97,0,0,1-1.778-.546c-.042-.028-.07-.014-.07.056v.574a.094.094,0,0,0,.056.1,3.451,3.451,0,0,0,1.764.42c1.2,0,2.268-.6,2.268-1.862,0-1.008-.6-1.512-1.834-2.016s-1.5-.854-1.5-1.4.378-1.106,1.456-1.106A2.838,2.838,0,0,1-69.594-5.838Zm3.472.644a2.666,2.666,0,0,1,2.114-1.022c1.148,0,1.68.868,1.68,2.072v4.06c0,.056.014.084.07.084h.518c.056,0,.084-.014.084-.084v-4.13c0-2.2-1.3-2.618-2.226-2.618a2.969,2.969,0,0,0-2.226.952l-.014-4.172c0-.042-.014-.056-.056-.056h-.546c-.056,0-.056.028-.056.07V-.084c0,.056.014.084.07.084h.518c.056,0,.07-.014.07-.07ZM-54.978-.77A3.6,3.6,0,0,1-56.5-.448c-1.47,0-1.946-.784-1.946-1.512,0-.966.812-1.512,2.422-1.512a6.936,6.936,0,0,1,1.05.07Zm.658-3.57A2.183,2.183,0,0,0-56.6-6.832a4.113,4.113,0,0,0-1.862.406.1.1,0,0,0-.042.084v.5c0,.056.042.07.07.042a3.577,3.577,0,0,1,1.736-.42A1.61,1.61,0,0,1-54.978-4.48v.49a10.252,10.252,0,0,0-1.064-.042c-1.638,0-3.066.574-3.066,2.072,0,1.372,1.008,2.1,2.436,2.1a4.737,4.737,0,0,0,2.338-.574c.028-.014.028-.028.028-.056-.014-.154-.014-.308-.014-.476Zm5.474-2.492A5.794,5.794,0,0,0-51.2-6.3a.052.052,0,0,0-.042.056,2.977,2.977,0,0,1,.042.42V3.22c0,.056.014.056.056.056s.406-.056.546-.07c.056-.014.056-.042.056-.084V.056a5.153,5.153,0,0,0,.98.084,3.662,3.662,0,0,0,3.85-3.752A3,3,0,0,0-48.846-6.832Zm-.112.6A2.428,2.428,0,0,1-46.4-3.556a2.959,2.959,0,0,1-3.122,3.08,3.9,3.9,0,0,1-1.022-.1V-5.922A4.034,4.034,0,0,1-48.958-6.23Zm9.324,2.772c.546,0,1.232-.014,1.442-.042a.094.094,0,0,0,.1-.084,2.606,2.606,0,0,0,.042-.588,2.539,2.539,0,0,0-2.59-2.66c-1.778,0-2.912,1.554-2.912,3.528,0,1.694.854,3.444,3.136,3.444a3.771,3.771,0,0,0,1.862-.42c.042-.014.056-.042.056-.1V-.84c0-.056-.028-.07-.07-.042a3.64,3.64,0,0,1-1.75.392c-1.736,0-2.632-1.274-2.562-2.968ZM-42.854-4a2.286,2.286,0,0,1,2.2-2.24,1.94,1.94,0,0,1,1.946,2.03.8.8,0,0,1-.014.182A6.543,6.543,0,0,1-39.76-4Zm10.682-2.7c-.042,0-.056.028-.042.07.868,2.17,2.31,5.642,2.618,6.4a.206.206,0,0,1,.014.154c-.49,1.134-1.05,2.408-1.47,3.276-.014.042-.014.084.042.084l.574-.056a.131.131,0,0,0,.126-.07c1.526-3.388,2.9-6.79,3.962-9.772.014-.042,0-.084-.056-.084h-.532a.08.08,0,0,0-.084.056c-1.064,2.828-1.75,4.606-2.2,5.768-.2-.574-.868-2.24-2.254-5.768-.028-.042-.042-.056-.07-.056ZM-21.5-6.832c-1.82,0-3.066,1.5-3.066,3.486,0,1.652.924,3.486,3.08,3.486,1.792,0,3.024-1.414,3.024-3.486C-18.466-5.446-19.7-6.832-21.5-6.832Zm-.042.6c1.722,0,2.408,1.456,2.408,2.9,0,2.016-1.218,2.856-2.31,2.856-1.582,0-2.45-1.358-2.45-2.9C-23.9-5.054-22.946-6.23-21.546-6.23Zm10.668-.392c0-.056,0-.084-.07-.084h-.518a.074.074,0,0,0-.084.084V-1.4A2.4,2.4,0,0,1-13.5-.476c-1.12,0-1.736-.77-1.736-2.058V-6.622c0-.056-.014-.084-.07-.084h-.532c-.056,0-.07.014-.07.084v4.186C-15.9-.35-14.7.14-13.622.14a2.8,2.8,0,0,0,2.1-.882,4.932,4.932,0,0,0,.07.686c.028.042.042.056.084.056h.5c.056,0,.07-.014.056-.07a9.017,9.017,0,0,1-.07-1.372Zm3.136-.084c-.056,0-.07.014-.056.084.042.322.07,1.134.07,1.708V-.07c0,.042.014.07.07.07h.546c.042,0,.056-.014.056-.07l.014-4.774A2.718,2.718,0,0,1-4.788-6.132c.056,0,.07-.014.07-.07v-.574c0-.056-.014-.056-.07-.056A2.975,2.975,0,0,0-7.07-5.558a10.589,10.589,0,0,0-.084-1.078c-.028-.042-.028-.07-.1-.07ZM2.2-5.194A2.666,2.666,0,0,1,4.312-6.216c1.148,0,1.68.868,1.68,2.072v4.06c0,.056.014.084.07.084H6.58c.056,0,.084-.014.084-.084v-4.13c0-2.2-1.3-2.618-2.226-2.618a2.969,2.969,0,0,0-2.226.952L2.2-10.052c0-.042-.014-.056-.056-.056H1.6c-.056,0-.056.028-.056.07V-.084c0,.056.014.084.07.084h.518c.056,0,.07-.014.07-.07ZM12.32-6.832c-1.82,0-3.066,1.5-3.066,3.486,0,1.652.924,3.486,3.08,3.486,1.792,0,3.024-1.414,3.024-3.486C15.358-5.446,14.126-6.832,12.32-6.832Zm-.042.6c1.722,0,2.408,1.456,2.408,2.9,0,2.016-1.218,2.856-2.31,2.856-1.582,0-2.45-1.358-2.45-2.9C9.926-5.054,10.878-6.23,12.278-6.23ZM18.55,0c.042,0,.056-.014.056-.07V-5.194a2.543,2.543,0,0,1,2.03-1.022c1.064,0,1.624.756,1.624,1.946V-.084c0,.07.014.084.084.084h.518c.056,0,.07-.014.07-.084V-4.228a5.173,5.173,0,0,0-.084-.952A2.554,2.554,0,0,1,24.92-6.23c1.12,0,1.652.91,1.652,2V-.084c0,.07.014.084.084.084h.5c.056,0,.084-.014.084-.07V-4.242c0-2.142-1.26-2.59-2.2-2.59A3.2,3.2,0,0,0,22.652-5.74a1.93,1.93,0,0,0-1.876-1.092,2.939,2.939,0,0,0-2.184.966,4.129,4.129,0,0,0-.07-.77c-.014-.056-.028-.07-.084-.07h-.49c-.056,0-.056.028-.056.07a13.1,13.1,0,0,1,.056,1.358V-.084c0,.056,0,.084.056.084Zm15.2-3.458c.546,0,1.232-.014,1.442-.042a.094.094,0,0,0,.1-.084,2.606,2.606,0,0,0,.042-.588,2.539,2.539,0,0,0-2.59-2.66c-1.778,0-2.912,1.554-2.912,3.528,0,1.694.854,3.444,3.136,3.444a3.771,3.771,0,0,0,1.862-.42c.042-.014.056-.042.056-.1V-.84c0-.056-.028-.07-.07-.042a3.64,3.64,0,0,1-1.75.392c-1.736,0-2.632-1.274-2.562-2.968ZM30.534-4a2.286,2.286,0,0,1,2.2-2.24,1.94,1.94,0,0,1,1.946,2.03.8.8,0,0,1-.014.182A6.543,6.543,0,0,1,33.628-4ZM42.2-6.09V-.07c0,.056.028.07.07.07H42.8c.056,0,.07-.028.07-.07V-6.09H44.3c.042-.014.07-.028.07-.084V-6.65c0-.042-.014-.056-.07-.056H42.868V-7.49c0-1.708.56-2.128,1.33-2.128a1.455,1.455,0,0,1,.532.084c.056.028.084,0,.084-.056v-.476a.087.087,0,0,0-.056-.084,1.3,1.3,0,0,0-.6-.1,1.742,1.742,0,0,0-1.61.966,3.9,3.9,0,0,0-.35,1.876v.7h-.952c-.056,0-.07.014-.07.07v.462c0,.042.014.07.07.084Zm6.762-.742c-1.82,0-3.066,1.5-3.066,3.486,0,1.652.924,3.486,3.08,3.486C50.764.14,52-1.274,52-3.346,52-5.446,50.764-6.832,48.958-6.832Zm-.042.6c1.722,0,2.408,1.456,2.408,2.9,0,2.016-1.218,2.856-2.31,2.856-1.582,0-2.45-1.358-2.45-2.9C46.564-5.054,47.516-6.23,48.916-6.23Zm5.656-.476c-.056,0-.07.014-.056.084.042.322.07,1.134.07,1.708V-.07c0,.042.014.07.07.07H55.2c.042,0,.056-.014.056-.07l.014-4.774a2.718,2.718,0,0,1,2.254-1.288c.056,0,.07-.014.07-.07v-.574c0-.056-.014-.056-.07-.056a2.975,2.975,0,0,0-2.282,1.274,10.589,10.589,0,0,0-.084-1.078c-.028-.042-.028-.07-.1-.07Zm9.282,5.53c0,1.162.574,1.316,1.064,1.316a1.213,1.213,0,0,0,.5-.084c.042-.014.042-.028.042-.084v-.42c0-.042,0-.07-.042-.056a1.341,1.341,0,0,1-.308.042c-.336,0-.6-.112-.6-.756v-8.834a.051.051,0,0,0-.056-.056h-.532c-.042,0-.07,0-.07.056ZM67.886-.084c0,.07.028.084.1.084h.5c.056,0,.07-.014.07-.07V-6.636c0-.056-.028-.07-.07-.07h-.532c-.042,0-.07.028-.07.084Zm.336-8.358a.449.449,0,0,0,.462-.462.448.448,0,0,0-.462-.49.453.453,0,0,0-.448.49A.423.423,0,0,0,68.222-8.442ZM74.13,0c.056,0,.07-.014.1-.07.154-.392,2.2-5.81,2.478-6.552.014-.056-.014-.084-.056-.084h-.532c-.042,0-.056.014-.084.07-1.4,3.864-2.016,5.5-2.212,6.048h-.014c-.182-.546-.812-2.24-2.156-6.048-.014-.056-.042-.07-.084-.07h-.574c-.07,0-.07.042-.056.084.2.518,2.268,6.174,2.408,6.566a.1.1,0,0,0,.1.056ZM79-.084c0,.07.028.084.1.084h.5c.056,0,.07-.014.07-.07V-6.636c0-.056-.028-.07-.07-.07h-.532c-.042,0-.07.028-.07.084Zm.336-8.358A.449.449,0,0,0,79.8-8.9a.448.448,0,0,0-.462-.49.453.453,0,0,0-.448.49A.423.423,0,0,0,79.338-8.442ZM82.824-.084c0,.056.014.084.056.084h.532c.056,0,.07-.014.07-.084V-5.1A2.568,2.568,0,0,1,85.6-6.216c1.148,0,1.68.882,1.68,2.072v4.06c0,.056.014.084.07.084h.518c.056,0,.084-.014.084-.084V-4.2c0-2.212-1.3-2.632-2.226-2.632A2.994,2.994,0,0,0,83.468-5.8a6.721,6.721,0,0,0-.07-.84c-.014-.056-.028-.07-.084-.07h-.476c-.056,0-.07.028-.07.07.014.182.056,1.008.056,1.484Zm10.612-.14c1.12.07,2.17.336,2.17,1.358,0,.854-.8,1.778-2.52,1.778-1.414,0-2.3-.8-2.3-1.568A2.653,2.653,0,0,1,92.008-.308ZM92.9-6.286A1.647,1.647,0,0,1,94.6-4.466a1.612,1.612,0,0,1-1.722,1.778A1.647,1.647,0,0,1,91.14-4.48,1.7,1.7,0,0,1,92.9-6.286Zm-.77,5.362a1.223,1.223,0,0,1-.308-.714,1.1,1.1,0,0,1,.112-.63,3.373,3.373,0,0,0,.938.14,2.231,2.231,0,0,0,2.38-2.352,2.194,2.194,0,0,0-.672-1.652c.364.028,1.036.042,1.512.042.056,0,.07-.028.07-.07v-.476c0-.042-.014-.07-.07-.07h-2.03a.864.864,0,0,1-.252-.028,3.611,3.611,0,0,0-.9-.1,2.3,2.3,0,0,0-2.436,2.366,2.2,2.2,0,0,0,.938,1.932,1.694,1.694,0,0,0-.224.854A1.678,1.678,0,0,0,91.56-.63c-.994.826-1.428,1.484-1.428,2,0,1.05,1.022,2.128,2.926,2.128S96.25,2.422,96.25,1.064c0-1.33-1.134-1.834-2.7-1.918Z" transform="translate(96 67)" fill="#fff"/>
    </g>
  </g>
</svg>
